<svg width="101" height="101" viewBox="0 0 101 101" fill="none" xmlns="http://www.w3.org/2000/svg">
<circle opacity="0.07" cx="50.5" cy="50.972" r="50" fill="#4D592B"/>
<path d="M53.4715 33.349L53.4296 33.2199L53.6426 33.4949C53.8254 33.6995 53.9763 33.6542 54.1054 33.4949C54.1054 33.4949 55.2341 32.1986 54.3503 30.6893C53.8639 29.6897 51.9454 27.3117 50.9358 26.5671C49.1112 25.4083 47.934 26.2988 47.934 26.2988C47.7881 26.4078 47.6807 26.5671 47.7881 26.7147L48.0732 27.0082C44.6302 27.6974 44.1237 30.379 43.899 31.5663L43.8621 31.7626L43.3993 34.9824C43.2517 36.1061 43.8621 36.7148 44.9354 36.7148H48.4371C49.6579 36.7316 52.2003 36.7635 53.4715 33.349Z" fill="#474747"/>
<path d="M42.2049 31.5245L41.8309 34.1273L29.9777 45.0917C29.5278 45.4674 29.1916 45.961 29.0067 46.5172C28.9353 46.7247 28.8842 46.9387 28.8541 47.1561V48.0114C29.3085 48.0483 29.8334 48.0114 30.4053 47.884L67.9104 37.1241C68.0352 37.0883 68.1666 37.0819 68.2942 37.1055C68.4218 37.1291 68.5423 37.182 68.646 37.26C68.7497 37.3381 68.8339 37.4391 68.8919 37.5552C68.9499 37.6713 68.9802 37.7993 68.9804 37.9291V46.056C68.9812 46.236 68.9239 46.4114 68.8169 46.5562C68.7099 46.7009 68.559 46.8072 68.3867 46.8593C61.209 49.0227 32.6743 57.6208 31.9733 57.8103C31.1801 58.0283 29.4243 58.357 28.8541 58.2832V63.5407C29.3656 63.6112 29.8972 63.591 30.4053 63.4552L67.9088 52.5964C68.0336 52.5603 68.1652 52.5537 68.293 52.5771C68.4209 52.6005 68.5415 52.6534 68.6455 52.7314C68.7494 52.8095 68.8338 52.9107 68.8919 53.0269C68.95 53.1432 68.9803 53.2714 68.9804 53.4014V61.2029L70.2449 60.8407L70.2566 60.8373L70.327 60.8139C70.7376 60.6787 71.1328 60.5005 71.506 60.2822C72.2657 59.8294 72.3344 59.5226 72.3344 59.484V37.6423C72.3344 37.2767 72.1835 36.6294 71.7861 36.0039C71.4138 35.4169 70.8855 34.9423 70.1929 34.7126L56.3456 31.4658C56.2844 30.9134 56.1097 30.3795 55.8325 29.8978C55.492 29.2253 54.8212 28.3046 54.1739 27.5131L71.023 31.4625C71.0625 31.4722 71.1017 31.4834 71.1404 31.496C72.7587 31.9991 73.8974 33.0724 74.6169 34.2061C75.3212 35.3129 75.6885 36.5757 75.6885 37.6423V59.484C75.6885 61.4629 74.1071 62.6368 73.2182 63.1651C72.5958 63.5317 71.9336 63.8259 71.2444 64.0421L71.2008 64.0556L71.1857 64.0589L71.1806 64.0606C71.1806 64.0606 70.9358 64.131 71.1773 64.0606L30.2443 75.8099C30.2204 75.8166 30.1964 75.8227 30.1722 75.8283C28.9765 76.1134 27.6181 76.038 26.6169 75.015C25.7197 74.0993 25.5 72.7929 25.5 71.6274V47.084L25.5017 46.9935V46.9683L25.5067 46.9314C25.5167 46.7818 25.5352 46.6328 25.5621 46.4853C25.609 46.2136 25.6912 45.8464 25.8354 45.4254C26.2042 44.3361 26.8552 43.3639 27.7221 42.608L43.4794 28.0346C43.4435 28.0861 43.4082 28.1381 43.3738 28.1906C42.6091 29.3746 42.376 30.6105 42.2619 31.2159L42.2552 31.2562C42.2394 31.3458 42.2226 31.4353 42.2049 31.5245Z" fill="#474747"/>
</svg>
