<svg width="101" height="101" viewBox="0 0 101 101" fill="none" xmlns="http://www.w3.org/2000/svg">
<circle opacity="0.07" cx="50.5" cy="50.972" r="50" fill="#4D592B"/>
<path d="M37.6414 69.8218V73.3437C37.6414 74.0407 37.9183 74.7093 38.4112 75.2022C38.9041 75.6951 39.5726 75.972 40.2697 75.972H61.296C61.9931 75.972 62.6616 75.6951 63.1545 75.2022C63.6474 74.7093 63.9243 74.0407 63.9243 73.3437V69.8218C67.9197 67.515 71.2375 64.1972 73.5443 60.2019C75.8511 56.2065 77.0656 51.6743 77.0657 47.0608C77.0657 46.3638 76.7888 45.6952 76.2959 45.2023C75.803 44.7094 75.1345 44.4325 74.4374 44.4325C74.3893 42.8233 73.929 41.2534 73.1007 39.8728C72.2724 38.4923 71.1038 37.3474 69.7065 36.5477C69.3715 34.2583 68.2224 32.1664 66.4701 30.6554C64.7178 29.1445 62.4796 28.3157 60.1658 28.3211C59.2786 28.3196 58.3949 28.4345 57.5375 28.6628C55.7285 26.9357 53.3235 25.972 50.8223 25.972C48.3211 25.972 45.9161 26.9357 44.107 28.6628C43.2496 28.4345 42.366 28.3196 41.4787 28.3211C39.1559 28.303 36.905 29.126 35.1417 30.6381C33.3784 32.1502 32.2218 34.2493 31.8855 36.5477C30.4833 37.3442 29.3094 38.4876 28.4764 39.8684C27.6433 41.2491 27.1791 42.8208 27.1283 44.4325C26.4312 44.4325 25.7627 44.7094 25.2698 45.2023C24.7769 45.6952 24.5 46.3638 24.5 47.0608C24.5001 51.6743 25.7146 56.2065 28.0214 60.2019C30.3282 64.1972 33.646 67.515 37.6414 69.8218ZM35.3023 40.9106L37.4837 40.2273L37.0632 37.8618C37.0701 37.2958 37.1884 36.7366 37.4113 36.2163C37.6343 35.6959 37.9576 35.2246 38.3628 34.8292C38.7679 34.4338 39.247 34.1221 39.7726 33.9119C40.2982 33.7017 40.8601 33.5971 41.4262 33.604C42.1852 33.5997 42.9339 33.7801 43.6076 34.1297L45.7365 35.3124L47.0507 33.2886C47.4617 32.6761 48.0171 32.1741 48.668 31.827C49.3189 31.4799 50.0452 31.2983 50.7828 31.2983C51.5205 31.2983 52.2468 31.4799 52.8977 31.827C53.5486 32.1741 54.104 32.6761 54.515 33.2886L55.8292 35.3124L57.9581 34.1297C58.6318 33.7801 59.3805 33.5997 60.1395 33.604C61.2764 33.5897 62.3733 34.0224 63.1942 34.8089C64.0152 35.5954 64.4944 36.6729 64.5288 37.8093L64.1083 40.0433L66.2634 40.7792C67.0585 41.028 67.761 41.5088 68.2808 42.1597C68.8007 42.8107 69.1141 43.6022 69.1808 44.4325H32.3849C32.4516 43.6022 32.765 42.8107 33.2849 42.1597C33.8047 41.5088 34.5072 41.028 35.3023 40.7792V40.9106ZM71.6514 49.6891C71.2129 53.1301 69.9299 56.4092 67.9167 59.2341C65.9036 62.0589 63.2228 64.3419 60.1133 65.8793C59.6758 66.0998 59.3087 66.438 59.0533 66.856C58.7978 67.274 58.6643 67.755 58.6677 68.2448V70.7154H42.898V68.2448C42.9014 67.755 42.7679 67.274 42.5124 66.856C42.257 66.438 41.8899 66.0998 41.4524 65.8793C38.3429 64.3419 35.6621 62.0589 33.649 59.2341C31.6358 56.4092 30.3528 53.1301 29.9143 49.6891H71.6514Z" fill="#474747"/>
</svg>
