<svg width="100" height="101" viewBox="0 0 100 101" fill="none" xmlns="http://www.w3.org/2000/svg">
<circle opacity="0.07" cx="50" cy="50.972" r="50" fill="#4D592B"/>
<path fill-rule="evenodd" clip-rule="evenodd" d="M64.4153 25.972C65.1182 25.9723 65.813 26.1207 66.4546 26.4077C67.0962 26.6946 67.6701 27.1136 68.1388 27.6373C68.6076 28.161 68.9606 28.7777 69.175 29.447C69.3893 30.1164 69.4602 30.8234 69.3828 31.522L64.9403 71.522C64.8049 72.7454 64.223 73.8759 63.306 74.697C62.3889 75.5181 61.2013 75.972 59.9703 75.972H39.4453C38.2144 75.972 37.0267 75.5181 36.1097 74.697C35.1927 73.8759 34.6107 72.7454 34.4753 71.522L30.0303 31.522C29.953 30.8232 30.0239 30.1159 30.2384 29.4464C30.4529 28.7769 30.8062 28.1601 31.2752 27.6364C31.7442 27.1127 32.3184 26.6937 32.9603 26.4069C33.6022 26.1201 34.2973 25.9719 35.0003 25.972H64.4153ZM64.4153 30.972H35.0003L36.0628 40.5295C36.9604 40.3584 37.8682 40.2465 38.7803 40.1945C41.7778 40.0195 45.9203 40.3795 50.6928 42.4245C54.6703 44.1295 58.0278 44.3945 60.3428 44.257C61.2313 44.2097 62.1139 44.0842 62.9803 43.882L64.4153 30.972ZM62.4028 49.072C61.8728 49.147 61.2803 49.212 60.6353 49.247C57.6378 49.4245 53.4953 49.0645 48.7228 47.022C44.7453 45.3145 41.3878 45.0495 39.0728 45.187C38.2468 45.2325 37.4258 45.3445 36.6178 45.522L39.4453 70.972H59.9703L62.4028 49.072ZM47.2078 53.472C47.2078 54.135 46.9444 54.7709 46.4756 55.2397C46.0068 55.7086 45.3709 55.972 44.7078 55.972C44.0448 55.972 43.4089 55.7086 42.9401 55.2397C42.4712 54.7709 42.2078 54.135 42.2078 53.472C42.2078 52.8089 42.4712 52.173 42.9401 51.7042C43.4089 51.2353 44.0448 50.972 44.7078 50.972C45.3709 50.972 46.0068 51.2353 46.4756 51.7042C46.9444 52.173 47.2078 52.8089 47.2078 53.472ZM52.2078 63.472C52.8709 63.472 53.5068 63.2086 53.9756 62.7397C54.4444 62.2709 54.7078 61.635 54.7078 60.972C54.7078 60.3089 54.4444 59.673 53.9756 59.2042C53.5068 58.7353 52.8709 58.472 52.2078 58.472C51.5448 58.472 50.9089 58.7353 50.4401 59.2042C49.9712 59.673 49.7078 60.3089 49.7078 60.972C49.7078 61.635 49.9712 62.2709 50.4401 62.7397C50.9089 63.2086 51.5448 63.472 52.2078 63.472Z" fill="#474747"/>
</svg>
