<svg width="176" height="128" viewBox="0 0 176 128" fill="none" xmlns="http://www.w3.org/2000/svg">
<path d="M150.108 0.436755C149.13 0.0120953 147.965 -0.108913 146.866 0.10021C145.768 0.309334 144.827 0.831559 144.248 1.55261L113.6 39.9356C113.443 40.1347 113.316 40.346 113.222 40.5656C109.793 41.5055 106.592 42.8497 103.744 44.5461C94.4577 32.883 77.4429 25.5391 58.8544 25.5391C30.1722 25.5391 6.841 42.7627 6.76104 63.9524H0L0.604535 67.5119C4.12254 88.1998 21.381 106.27 46.1962 115.785V128H110.226C118.343 128 124.946 123.114 124.946 117.113V115.786C149.769 106.267 167.019 88.1969 170.545 67.5119L171.15 63.9495H158.94C158.884 53.1341 149.502 43.9391 136.451 40.4676L174.689 13.2647C176.39 12.0552 176.444 10.0512 174.802 8.79411C174.413 8.49481 173.948 8.25511 173.434 8.0887C172.919 7.92229 172.366 7.83244 171.804 7.82427C171.243 7.81611 170.685 7.88979 170.162 8.04111C169.639 8.19242 169.162 8.41842 168.757 8.70617L126.163 39.0129C125.78 39.0014 125.4 38.9697 125.012 38.9697C124.766 38.9697 124.53 38.9956 124.289 38.9985L151.617 4.76897C151.903 4.41126 152.091 4.01544 152.17 3.60411C152.248 3.19279 152.217 2.77403 152.077 2.37173C151.936 1.96944 151.69 1.5915 151.353 1.25949C151.015 0.927483 150.592 0.647916 150.108 0.436755ZM58.8525 31.8666C75.2276 31.8666 90.1538 38.6814 97.5778 49.3584C94.8712 52.1104 92.9522 55.2416 91.9381 58.5605C88.5352 47.3617 75.0053 38.9668 58.8525 38.9668C40.1957 38.9668 25.018 50.1657 24.9381 63.9509H15.3201C15.3981 46.2516 34.8914 31.8666 58.8525 31.8666ZM58.8525 52.4118C50.2135 52.4118 43.1833 57.5802 43.1034 63.9509H33.4991C33.579 53.6545 44.915 45.2957 58.8525 45.2957C72.7938 45.2957 84.1416 53.6545 84.2137 63.9509H74.5977C74.5216 57.5802 67.4915 52.4118 58.8525 52.4118ZM66.0328 63.9524H51.6722C51.7104 62.5617 52.4837 61.2373 53.8265 60.263C55.1693 59.2886 56.9748 58.7417 58.8564 58.7393C60.737 58.7421 62.5414 59.2893 63.8829 60.2637C65.2243 61.2382 65.9961 62.5623 66.0328 63.9524ZM161.288 70.2799C156.532 88.6669 139.665 104.342 116.289 111.85H102.59V118.179H116.198C115.877 119.172 115.114 120.057 114.031 120.69C112.949 121.324 111.609 121.67 110.228 121.673H54.7572V118.179H70.8047V111.85H54.8606C31.4846 104.347 14.6161 88.6669 9.85588 70.2799H161.288ZM117.834 63.9524C117.871 62.5623 118.644 61.2384 119.985 60.2641C121.327 59.2897 123.131 58.7424 125.012 58.7393C126.894 58.7405 128.701 59.287 130.045 60.2615C131.389 61.2361 132.162 62.5611 132.2 63.9524H117.834ZM125.012 45.2972C138.959 45.2972 150.311 53.656 150.385 63.9524H140.763C140.685 57.5816 133.653 52.4133 125.012 52.4133C116.373 52.4133 109.349 57.5816 109.271 63.9524H99.6586C99.7366 53.656 111.073 45.2972 125.012 45.2972Z" fill="#AD343E"/>
</svg>
